<mxfile host="app.diagrams.net" agent="Mozilla/5.0 (Windows NT 10.0; Win64; x64) AppleWebKit/537.36 (KHTML, like Gecko) Chrome/131.0.0.0 Safari/537.36" version="25.0.1">
  <diagram id="n6jttrpC6YOV2Hv1oXw1" name="DogPark 2">
    <mxGraphModel dx="1034" dy="446" grid="1" gridSize="10" guides="1" tooltips="1" connect="1" arrows="1" fold="1" page="1" pageScale="1" pageWidth="850" pageHeight="1100" math="0" shadow="0">
      <root>
        <mxCell id="0" />
        <mxCell id="1" parent="0" />
        <mxCell id="HuStx9NWVJ8lDPOhChtI-1" value="DogPark" style="swimlane;fontStyle=1;align=center;verticalAlign=top;childLayout=stackLayout;horizontal=1;startSize=26;horizontalStack=0;resizeParent=1;resizeParentMax=0;resizeLast=0;collapsible=1;marginBottom=0;whiteSpace=wrap;html=1;" vertex="1" parent="1">
          <mxGeometry y="80" width="170" height="270" as="geometry" />
        </mxCell>
        <mxCell id="HuStx9NWVJ8lDPOhChtI-2" value="- currentCapacity: Dog[]&lt;div&gt;- maxCapacity: int&lt;/div&gt;&lt;div&gt;-name: String&lt;/div&gt;&lt;div&gt;- isOpen: boolean&lt;/div&gt;" style="text;strokeColor=none;fillColor=none;align=left;verticalAlign=top;spacingLeft=4;spacingRight=4;overflow=hidden;rotatable=0;points=[[0,0.5],[1,0.5]];portConstraint=eastwest;whiteSpace=wrap;html=1;" vertex="1" parent="HuStx9NWVJ8lDPOhChtI-1">
          <mxGeometry y="26" width="170" height="64" as="geometry" />
        </mxCell>
        <mxCell id="HuStx9NWVJ8lDPOhChtI-3" value="" style="line;strokeWidth=1;fillColor=none;align=left;verticalAlign=middle;spacingTop=-1;spacingLeft=3;spacingRight=3;rotatable=0;labelPosition=right;points=[];portConstraint=eastwest;strokeColor=inherit;" vertex="1" parent="HuStx9NWVJ8lDPOhChtI-1">
          <mxGeometry y="90" width="170" height="8" as="geometry" />
        </mxCell>
        <mxCell id="HuStx9NWVJ8lDPOhChtI-4" value="&lt;div&gt;+ DogPark(String name)&lt;/div&gt;&lt;div&gt;+ DogPark(String name, int maxCapacity)&lt;/div&gt;&lt;div&gt;+ removeDog(Dog dog): void&lt;/div&gt;&lt;div&gt;+ addDog(Dog dog): void&lt;/div&gt;+ closepark(): void&lt;div&gt;+ openPark(): void&lt;/div&gt;&lt;div&gt;+ getCurrentCapacity(): Dog[]&lt;/div&gt;&lt;div&gt;+ getMaxCapacity(): int&lt;/div&gt;&lt;div&gt;+ getName(): String&lt;/div&gt;&lt;div&gt;+ setName(String name): void&lt;/div&gt;" style="text;strokeColor=none;fillColor=none;align=left;verticalAlign=top;spacingLeft=4;spacingRight=4;overflow=hidden;rotatable=0;points=[[0,0.5],[1,0.5]];portConstraint=eastwest;whiteSpace=wrap;html=1;" vertex="1" parent="HuStx9NWVJ8lDPOhChtI-1">
          <mxGeometry y="98" width="170" height="172" as="geometry" />
        </mxCell>
        <mxCell id="HuStx9NWVJ8lDPOhChtI-5" value="Dog" style="swimlane;fontStyle=1;align=center;verticalAlign=top;childLayout=stackLayout;horizontal=1;startSize=26;horizontalStack=0;resizeParent=1;resizeParentMax=0;resizeLast=0;collapsible=1;marginBottom=0;whiteSpace=wrap;html=1;" vertex="1" parent="1">
          <mxGeometry x="200" y="80" width="200" height="200" as="geometry" />
        </mxCell>
        <mxCell id="HuStx9NWVJ8lDPOhChtI-6" value="- name: String&lt;div&gt;- breed: Breed&lt;/div&gt;&lt;div&gt;- tag: UUID&lt;/div&gt;" style="text;strokeColor=none;fillColor=none;align=left;verticalAlign=top;spacingLeft=4;spacingRight=4;overflow=hidden;rotatable=0;points=[[0,0.5],[1,0.5]];portConstraint=eastwest;whiteSpace=wrap;html=1;" vertex="1" parent="HuStx9NWVJ8lDPOhChtI-5">
          <mxGeometry y="26" width="200" height="56" as="geometry" />
        </mxCell>
        <mxCell id="HuStx9NWVJ8lDPOhChtI-7" value="" style="line;strokeWidth=1;fillColor=none;align=left;verticalAlign=middle;spacingTop=-1;spacingLeft=3;spacingRight=3;rotatable=0;labelPosition=right;points=[];portConstraint=eastwest;strokeColor=inherit;" vertex="1" parent="HuStx9NWVJ8lDPOhChtI-5">
          <mxGeometry y="82" width="200" height="8" as="geometry" />
        </mxCell>
        <mxCell id="HuStx9NWVJ8lDPOhChtI-8" value="+ Dog(String name&lt;span style=&quot;background-color: initial;&quot;&gt;)&lt;/span&gt;&lt;div&gt;+ Dog(String name, Breed breed)&lt;br&gt;&lt;div&gt;&lt;span style=&quot;background-color: initial;&quot;&gt;+ getName(): String&lt;/span&gt;&lt;/div&gt;&lt;/div&gt;&lt;div&gt;&lt;span style=&quot;background-color: initial;&quot;&gt;+ setName(String name): void&lt;/span&gt;&lt;/div&gt;&lt;div&gt;&lt;span style=&quot;background-color: initial;&quot;&gt;+ getTag(): UUID&lt;/span&gt;&lt;/div&gt;&lt;div&gt;&lt;span style=&quot;background-color: initial;&quot;&gt;+ getBreed(): Breed&lt;/span&gt;&lt;/div&gt;&lt;div&gt;&lt;span style=&quot;background-color: initial;&quot;&gt;+ toString(): String&lt;/span&gt;&lt;/div&gt;" style="text;strokeColor=none;fillColor=none;align=left;verticalAlign=top;spacingLeft=4;spacingRight=4;overflow=hidden;rotatable=0;points=[[0,0.5],[1,0.5]];portConstraint=eastwest;whiteSpace=wrap;html=1;" vertex="1" parent="HuStx9NWVJ8lDPOhChtI-5">
          <mxGeometry y="90" width="200" height="110" as="geometry" />
        </mxCell>
        <mxCell id="HuStx9NWVJ8lDPOhChtI-9" value="DogNames" style="swimlane;fontStyle=1;align=center;verticalAlign=top;childLayout=stackLayout;horizontal=1;startSize=26;horizontalStack=0;resizeParent=1;resizeParentMax=0;resizeLast=0;collapsible=1;marginBottom=0;whiteSpace=wrap;html=1;" vertex="1" parent="1">
          <mxGeometry x="650" y="80" width="200" height="100" as="geometry" />
        </mxCell>
        <mxCell id="HuStx9NWVJ8lDPOhChtI-10" value="- &lt;u&gt;DOG_NAMES: String[] {read only}&lt;/u&gt;" style="text;strokeColor=none;fillColor=none;align=left;verticalAlign=top;spacingLeft=4;spacingRight=4;overflow=hidden;rotatable=0;points=[[0,0.5],[1,0.5]];portConstraint=eastwest;whiteSpace=wrap;html=1;" vertex="1" parent="HuStx9NWVJ8lDPOhChtI-9">
          <mxGeometry y="26" width="200" height="26" as="geometry" />
        </mxCell>
        <mxCell id="HuStx9NWVJ8lDPOhChtI-11" value="" style="line;strokeWidth=1;fillColor=none;align=left;verticalAlign=middle;spacingTop=-1;spacingLeft=3;spacingRight=3;rotatable=0;labelPosition=right;points=[];portConstraint=eastwest;strokeColor=inherit;" vertex="1" parent="HuStx9NWVJ8lDPOhChtI-9">
          <mxGeometry y="52" width="200" height="8" as="geometry" />
        </mxCell>
        <mxCell id="HuStx9NWVJ8lDPOhChtI-12" value="+ DogNames()&lt;div&gt;+ getRandomName(): String&lt;/div&gt;" style="text;strokeColor=none;fillColor=none;align=left;verticalAlign=top;spacingLeft=4;spacingRight=4;overflow=hidden;rotatable=0;points=[[0,0.5],[1,0.5]];portConstraint=eastwest;whiteSpace=wrap;html=1;" vertex="1" parent="HuStx9NWVJ8lDPOhChtI-9">
          <mxGeometry y="60" width="200" height="40" as="geometry" />
        </mxCell>
        <mxCell id="HuStx9NWVJ8lDPOhChtI-13" value="Breed (enum)" style="swimlane;fontStyle=1;align=center;verticalAlign=top;childLayout=stackLayout;horizontal=1;startSize=26;horizontalStack=0;resizeParent=1;resizeParentMax=0;resizeLast=0;collapsible=1;marginBottom=0;whiteSpace=wrap;html=1;" vertex="1" parent="1">
          <mxGeometry x="440" y="80" width="190" height="200" as="geometry">
            <mxRectangle x="440" y="80" width="110" height="30" as="alternateBounds" />
          </mxGeometry>
        </mxCell>
        <mxCell id="HuStx9NWVJ8lDPOhChtI-14" value="Poodle&lt;div&gt;Labradoodle&lt;/div&gt;&lt;div&gt;Boxer&lt;/div&gt;&lt;div&gt;Golden Retriever&lt;/div&gt;&lt;div&gt;&lt;div&gt;&lt;div&gt;Spaniel&lt;/div&gt;&lt;/div&gt;&lt;/div&gt;" style="text;strokeColor=none;fillColor=none;align=left;verticalAlign=top;spacingLeft=4;spacingRight=4;overflow=hidden;rotatable=0;points=[[0,0.5],[1,0.5]];portConstraint=eastwest;whiteSpace=wrap;html=1;" vertex="1" parent="HuStx9NWVJ8lDPOhChtI-13">
          <mxGeometry y="26" width="190" height="84" as="geometry" />
        </mxCell>
        <mxCell id="HuStx9NWVJ8lDPOhChtI-15" value="" style="line;strokeWidth=1;fillColor=none;align=left;verticalAlign=middle;spacingTop=-1;spacingLeft=3;spacingRight=3;rotatable=0;labelPosition=right;points=[];portConstraint=eastwest;strokeColor=inherit;" vertex="1" parent="HuStx9NWVJ8lDPOhChtI-13">
          <mxGeometry y="110" width="190" height="8" as="geometry" />
        </mxCell>
        <mxCell id="HuStx9NWVJ8lDPOhChtI-16" value="- breed: String&lt;div&gt;- value: int&lt;br&gt;&lt;div&gt;- Breed(&lt;span style=&quot;background-color: initial;&quot;&gt;int value,&amp;nbsp;&lt;/span&gt;&lt;span style=&quot;background-color: initial;&quot;&gt;String breed)&amp;nbsp;&lt;/span&gt;&lt;/div&gt;&lt;div&gt;+ valueOfLabel(int value): Breed&lt;/div&gt;&lt;div&gt;+ getRandomBreed(): Breed&lt;/div&gt;&lt;/div&gt;" style="text;strokeColor=none;fillColor=none;align=left;verticalAlign=top;spacingLeft=4;spacingRight=4;overflow=hidden;rotatable=0;points=[[0,0.5],[1,0.5]];portConstraint=eastwest;whiteSpace=wrap;html=1;" vertex="1" parent="HuStx9NWVJ8lDPOhChtI-13">
          <mxGeometry y="118" width="190" height="82" as="geometry" />
        </mxCell>
      </root>
    </mxGraphModel>
  </diagram>
</mxfile>
